<svg width="115" height="149" viewBox="0 0 115 149" fill="none" xmlns="http://www.w3.org/2000/svg">
<mask id="path-1-inside-1_127_251" fill="white">
<path fill-rule="evenodd" clip-rule="evenodd" d="M104.226 40.7584C106.618 42.1391 109.676 41.3197 111.057 38.9283L112.754 35.9882C114.135 33.5967 113.315 30.5388 110.924 29.1581L61.5823 0.670707C60.0657 -0.204938 58.281 -0.19569 56.826 0.53826C55.4902 0.0590137 53.9603 0.14852 52.6351 0.91365L3.29358 29.401C2.05512 30.116 1.23827 31.2809 0.930255 32.57C0.344628 33.3889 0 34.3918 0 35.4753V111.649C0 113.546 1.05635 115.197 2.61289 116.044C2.99067 117.147 3.75361 118.123 4.84243 118.752L54.184 147.239C55.3889 147.935 56.7631 148.072 58.0067 147.731C59.4721 148.494 61.2843 148.516 62.8213 147.628L112.163 119.141C114.554 117.76 115.374 114.702 113.993 112.311L112.296 109.371C110.915 106.979 107.857 106.16 105.465 107.54L58.8397 134.46L12.9484 107.964V39.2939L57.3191 13.6765L104.226 40.7584Z"/>
</mask>
<path d="M111.057 38.9283L102.396 33.9283L102.396 33.9283L111.057 38.9283ZM104.226 40.7584L109.226 32.0982L109.226 32.0982L104.226 40.7584ZM112.754 35.9882L121.414 40.9882L121.414 40.9882L112.754 35.9882ZM110.924 29.1581L105.924 37.8183H105.924L110.924 29.1581ZM61.5823 0.670707L56.5823 9.33096L56.5823 9.33096L61.5823 0.670707ZM56.826 0.53826L53.4489 9.95077L57.4934 11.4019L61.3299 9.46659L56.826 0.53826ZM52.6351 0.91365L47.6351 -7.7466L47.6351 -7.7466L52.6351 0.91365ZM3.29358 29.401L-1.70642 20.7407L-1.70643 20.7407L3.29358 29.401ZM0.930255 32.57L9.06419 38.3871L10.202 36.7962L10.6565 34.8939L0.930255 32.57ZM2.61289 116.044L12.0732 112.803L10.812 109.122L7.39401 107.261L2.61289 116.044ZM4.84243 118.752L9.84243 110.091H9.84243L4.84243 118.752ZM54.184 147.239L49.184 155.899L49.184 155.899L54.184 147.239ZM58.0067 147.731L62.627 138.862L59.1465 137.049L55.3616 138.087L58.0067 147.731ZM62.8213 147.628L67.8213 156.288L67.8213 156.288L62.8213 147.628ZM112.163 119.141L117.163 127.801L117.163 127.801L112.163 119.141ZM113.993 112.311L105.333 117.311L105.333 117.311L113.993 112.311ZM112.296 109.371L120.956 104.371L120.956 104.371L112.296 109.371ZM105.465 107.54L110.465 116.201L110.465 116.201L105.465 107.54ZM58.8397 134.46L53.8397 143.12L58.8397 146.007L63.8397 143.12L58.8397 134.46ZM12.9484 107.964H2.94844V113.738L7.94844 116.625L12.9484 107.964ZM12.9484 39.2939L7.94844 30.6336L2.94844 33.5204V39.2939H12.9484ZM57.3191 13.6765L62.3191 5.01622L57.3191 2.12947L52.3191 5.01622L57.3191 13.6765ZM102.396 33.9283C103.777 31.5368 106.835 30.7174 109.226 32.0982L99.2264 49.4187C106.401 53.5608 115.575 51.1027 119.717 43.9283L102.396 33.9283ZM104.094 30.9882L102.396 33.9283L119.717 43.9283L121.414 40.9882L104.094 30.9882ZM105.924 37.8183C103.532 36.4376 102.713 33.3796 104.094 30.9882L121.414 40.9882C125.556 33.8138 123.098 24.6399 115.924 20.4978L105.924 37.8183ZM56.5823 9.33096L105.924 37.8183L115.924 20.4978L66.5823 -7.98955L56.5823 9.33096ZM61.3299 9.46659C59.9021 10.1868 58.1077 10.2116 56.5823 9.33096L66.5824 -7.98954C62.0236 -10.6215 56.6598 -10.5782 52.3221 -8.39008L61.3299 9.46659ZM57.6351 9.5739C56.3075 10.3404 54.7621 10.4219 53.4489 9.95077L60.2031 -8.87425C56.2184 -10.3039 51.6132 -10.0434 47.6351 -7.7466L57.6351 9.5739ZM8.29358 38.0612L57.6351 9.5739L47.6351 -7.7466L-1.70642 20.7407L8.29358 38.0612ZM10.6565 34.8939C10.3528 36.165 9.53123 37.3467 8.29358 38.0612L-1.70643 20.7407C-5.42099 22.8853 -7.87623 26.3967 -8.79597 30.2461L10.6565 34.8939ZM10 35.4753C10 36.5461 9.65196 37.5653 9.06419 38.3871L-7.20368 26.7529C-8.9627 29.2125 -10 32.2376 -10 35.4753H10ZM10 111.649V35.4753H-10V111.649H10ZM7.39401 107.261C8.92486 108.094 10 109.739 10 111.649H-10C-10 117.354 -6.81216 122.299 -2.16823 124.827L7.39401 107.261ZM9.84243 110.091C10.925 110.716 11.6978 111.707 12.0732 112.803L-6.8474 119.285C-5.71643 122.586 -3.41778 125.53 -0.157568 127.412L9.84243 110.091ZM59.184 138.579L9.84243 110.091L-0.157568 127.412L49.184 155.899L59.184 138.579ZM55.3616 138.087C56.5896 137.75 57.9811 137.884 59.1839 138.579L49.184 155.899C52.7968 157.985 56.9365 158.394 60.6517 157.375L55.3616 138.087ZM57.8214 138.968C59.3676 138.075 61.1887 138.113 62.627 138.862L53.3863 156.599C57.7554 158.876 63.2011 158.956 67.8213 156.288L57.8214 138.968ZM107.163 110.481L57.8213 138.968L67.8213 156.288L117.163 127.801L107.163 110.481ZM105.333 117.311C103.952 114.919 104.771 111.861 107.163 110.481L117.163 127.801C124.337 123.659 126.795 114.485 122.653 107.311L105.333 117.311ZM103.635 114.371L105.333 117.311L122.653 107.311L120.956 104.371L103.635 114.371ZM110.465 116.201C108.074 117.581 105.016 116.762 103.635 114.371L120.956 104.371C116.814 97.1962 107.64 94.7381 100.465 98.8802L110.465 116.201ZM63.8397 143.12L110.465 116.201L100.465 98.8802L53.8397 125.8L63.8397 143.12ZM7.94844 116.625L53.8397 143.12L63.8397 125.8L17.9484 99.3042L7.94844 116.625ZM2.94844 39.2939V107.964H22.9484V39.2939H2.94844ZM52.3191 5.01622L7.94844 30.6336L17.9484 47.9542L62.3191 22.3367L52.3191 5.01622ZM109.226 32.0982L62.3191 5.01622L52.3191 22.3367L99.2264 49.4187L109.226 32.0982Z" fill="#38ABBE" mask="url(#path-1-inside-1_127_251)"/>
</svg>
